# xmcd
#
# Track frame offsets:
#	150
#	20590
#	42022
#	56648
#	75433
#	89512
#	110160
#	124532
#	138212
#	151939
#	175460
#	189439
#	205402
#	225764
#	236977
#	252143
#	262920
#	271026
#	285791
#	298275
#
# Disc length: 4177 seconds
#
# Revision: 1
# Processed by: cddbd v1.5.1PL0 Copyright (c) Steve Scherf et al.
# Submitted via: EasyCDDAExtractor 6.5.7.1
#
DISCID=0e104f14
DTITLE=Various Artist - 20 Sucessos Gaúchos V1
DYEAR=1999
DGENRE=Gaúcha
TTITLE0=Garotos de Ouro - Não Chora China Véia
TTITLE1=Elton Saldanha - Baile das Negra Touro
TTITLE2=Wilson Paim - Judiaria
TTITLE3=Jorge Guedes - Bagual de Corredor
TTITLE4=Os Veteranos - Gaiteiro
TTITLE5=Edson Dutra - Andanças Gaúchas
TTITLE6=Porca Véia - Convite de Festa
TTITLE7=Dê-le Fole - Se Escondendo da Briga
TTITLE8=Mauro Petry - Baile da Encruzilhada
TTITLE9=Piazitos do Fandango - Lago Verde-Azul
TTITLE10=Euclides Turra - No Compasso do Bugio
TTITLE11=Tio Nonato - Baile Moderno
TTITLE12=Beto Mayer - Entristeceu meu Chamame
TTITLE13=Os Araganos - Fandangaço
TTITLE14=Bagre Fagundes - Mané Romão
TTITLE15=Zeferino Dametto - Ás de Copa
TTITLE16=Nardel Silva - Baile no Chico Torto
TTITLE17=Os Garotos da Tradição - Fim de Semana tem Rodeio
TTITLE18=Beto Gonzales - Baio da Saudade
TTITLE19=João Campeiro - O Velho pode Sim
EXTD=
EXTT0=
EXTT1=
EXTT2=
EXTT3=
EXTT4=
EXTT5=
EXTT6=
EXTT7=
EXTT8=
EXTT9=
EXTT10=
EXTT11=
EXTT12=
EXTT13=
EXTT14=
EXTT15=
EXTT16=
EXTT17=
EXTT18=
EXTT19=
PLAYORDER=
